<svg width="80" height="80" viewBox="0 0 80 80" fill="none" xmlns="http://www.w3.org/2000/svg">
<rect width="80" height="80" rx="8" fill="#EEEEEE"/>
<path d="M20.652 63.595V22.976L19.84 16.48H48.2712L47.4592 22.976V63.595H20.652Z" fill="#FF82C4"/>
<path d="M20.652 22.976H47.4592L48.2712 16.48H19.84L20.652 22.976Z" fill="#CCDCE4"/>
<path d="M20.652 22.9783H47.4592V26.2263H20.652V22.9783Z" fill="#ABBAC2"/>
<path d="M20.652 26.2285H47.4592V32.7245H20.652V26.2285Z" fill="#CCDCE4"/>
<path d="M20.652 56.2847H47.4592V63.596H20.652V56.2847Z" fill="#CCDCE4"/>
<path d="M47.4514 63.5199C54.8741 63.5199 60.8914 57.5026 60.8914 50.0799C60.8914 42.6572 54.8741 36.6399 47.4514 36.6399C40.0286 36.6399 34.0114 42.6572 34.0114 50.0799C34.0114 57.5026 40.0286 63.5199 47.4514 63.5199Z" fill="#D7E6EB"/>
<path d="M48.9488 40.9744C47.9621 40.8104 46.9551 40.8104 45.9684 40.9744L45.6996 39.3717C46.8643 39.1779 48.0529 39.1779 49.2176 39.3717L48.9488 40.9744Z" fill="#ABBAC2"/>
<path d="M41.7629 42.8997L40.7291 41.6465C41.6403 40.8955 42.6697 40.3009 43.7755 39.887L44.3434 41.409C43.4082 41.7603 42.5378 42.264 41.7674 42.8997H41.7629Z" fill="#ABBAC2"/>
<path d="M39.0827 46.6707L37.5606 46.1028C37.9746 44.997 38.5692 43.9676 39.3201 43.0564L40.5734 44.0902C39.9376 44.8606 39.4339 45.7311 39.0827 46.6662V46.6707Z" fill="#ABBAC2"/>
<path d="M37.0443 51.545C36.8497 50.3804 36.8497 49.1917 37.0443 48.0271L38.647 48.2959C38.4823 49.2825 38.4823 50.2896 38.647 51.2762L37.0443 51.545Z" fill="#ABBAC2"/>
<path d="M39.3201 56.5166C38.5692 55.6054 37.9746 54.576 37.5606 53.4702L39.0827 52.9023C39.4339 53.8374 39.9377 54.7079 40.5734 55.4783L39.3201 56.5166Z" fill="#ABBAC2"/>
<path d="M43.7755 59.6852C42.6697 59.2712 41.6403 58.6766 40.7291 57.9257L41.7629 56.6724C42.5333 57.3081 43.4038 57.8119 44.3389 58.1631L43.7755 59.6852Z" fill="#ABBAC2"/>
<path d="M47.4592 60.346C46.8692 60.3459 46.2804 60.2969 45.6985 60.1993L45.9696 58.5977C46.9563 58.7616 47.9632 58.7616 48.9499 58.5977L49.2187 60.2004C48.6372 60.2975 48.0487 60.3462 47.4592 60.346Z" fill="#ABBAC2"/>
<path d="M51.1428 59.6852L50.575 58.1631C51.5101 57.8118 52.3805 57.3081 53.151 56.6724L54.1848 57.9257C53.275 58.6762 52.2471 59.2708 51.1428 59.6852Z" fill="#ABBAC2"/>
<path d="M55.5983 56.5167L54.345 55.483C54.9807 54.7125 55.4845 53.8421 55.8357 52.907L57.3578 53.4748C56.9438 54.5806 56.3492 55.6101 55.5983 56.5212V56.5167Z" fill="#ABBAC2"/>
<path d="M57.8741 51.545L56.2714 51.2762C56.4361 50.2896 56.4361 49.2825 56.2714 48.2959L57.8741 48.0271C58.0687 49.1917 58.0687 50.3804 57.8741 51.545Z" fill="#ABBAC2"/>
<path d="M55.8357 46.6708C55.4844 45.7357 54.9807 44.8653 54.345 44.0948L55.5983 43.061C56.3492 43.9722 56.9438 45.0016 57.3578 46.1074L55.8357 46.6708Z" fill="#ABBAC2"/>
<path d="M53.1555 42.8997C52.3851 42.264 51.5146 41.7603 50.5795 41.409L51.1474 39.887C52.2532 40.3009 53.2826 40.8955 54.1938 41.6465L53.1555 42.8997Z" fill="#ABBAC2"/>
<path d="M23.0892 35.1638H24.7143V36.7889H23.0892V35.1638Z" fill="#EA4C89"/>
<path d="M24.7143 40.0381H26.3394V41.6632H24.7143V40.0381Z" fill="#EA4C89"/>
<path d="M23.0892 43.2871H31.2125V44.9122H23.0892V43.2871Z" fill="#EA4C89"/>
<path d="M23.0892 46.5364H31.2125V48.1615H23.0892V46.5364Z" fill="#EA4C89"/>
<path d="M23.0892 49.7854H31.2125V51.4105H23.0892V49.7854Z" fill="#EA4C89"/>
<path d="M27.9634 40.0381H32.8376V41.6632H27.9634V40.0381Z" fill="#EA4C89"/>
</svg>
