<svg width="56" height="80" viewBox="0 0 56 80" fill="none" xmlns="http://www.w3.org/2000/svg">
<rect width="80" height="80" rx="8" fill="#EEEEEE"/>
<path d="M50.0773 15.3601V62.3944C50.0773 62.84 49.9003 63.2673 49.5852 63.5823C49.2702 63.8973 48.8429 64.0743 48.3974 64.0743H36.8072C36.4963 64.0741 36.1915 63.9877 35.9267 63.8247C35.6619 63.6618 35.4474 63.4286 35.3071 63.1512C29.7067 51.6247 28.4232 38.4726 31.6897 26.0808C32.6115 22.351 33.9925 18.75 35.8008 15.3601H50.0773Z" fill="#CCDCE4"/>
<path d="M50.08 15.3601V21.6208L31.6924 26.0781C32.3427 23.5682 33.175 21.1089 34.1827 18.7199C34.6551 17.5703 35.1927 16.4485 35.7928 15.3601H50.08Z" fill="#FF82C4"/>
<path d="M50.0773 15.3601V18.7199H34.1827C34.6552 17.5703 35.1928 16.4486 35.7928 15.3601H50.0773Z" fill="#EA4C89"/>
<path d="M38.4146 59.8745C35.6131 53.5224 34.1515 46.6608 34.121 39.7185C34.1272 36.3021 34.4869 32.8956 35.1944 29.5532L45.8856 26.9609V59.8745H38.4146Z" fill="#FF82C4"/>
<path d="M39.6571 39.6782C40.9362 39.6782 41.973 38.6413 41.973 37.3623C41.973 36.0832 40.9362 35.0464 39.6571 35.0464C38.3781 35.0464 37.3412 36.0832 37.3412 37.3623C37.3412 38.6413 38.3781 39.6782 39.6571 39.6782Z" fill="#EA4C89"/>
<path d="M39.1607 43.0754H40.8406V44.7554H39.1607V43.0754Z" fill="#EA4C89"/>
<path d="M38.3207 46.4353H41.6805V48.1152H38.3207V46.4353Z" fill="#EA4C89"/>
</svg>
