<svg width="80" height="80" viewBox="0 0 80 80" fill="none" xmlns="http://www.w3.org/2000/svg">
<rect width="80" height="80" rx="8" fill="#EEEEEE"/>
<path d="M51.041 50.5986V63.5906H39.6686V50.5986L40.195 41.6543C40.2702 40.3366 40.8467 39.0975 41.8062 38.1912C42.7657 37.2849 44.0355 36.78 45.3554 36.78C46.6752 36.78 47.9451 37.2849 48.9046 38.1912C49.8641 39.0975 50.4406 40.3366 50.5158 41.6543L51.041 50.5986Z" fill="#CCDCE4"/>
<path d="M42.9166 48.1178V61.9756C42.9172 62.5463 42.7665 63.1071 42.4798 63.6007H39.6686V50.6087L40.195 41.6644C40.2386 40.9022 40.451 40.1593 40.8169 39.4893C41.1828 38.8193 41.693 38.2389 42.3107 37.7903L42.9166 48.1178Z" fill="#92A5AF"/>
<path d="M39.6686 60.3459H51.041V63.5939H39.6686V60.3459Z" fill="#FF82C4"/>
<path d="M39.6686 60.3459H42.9166V61.9711C42.9166 62.4021 42.7454 62.8154 42.4406 63.1202C42.1358 63.425 41.7225 63.5962 41.2915 63.5962H39.6686V60.3459Z" fill="#EA4C89"/>
<path d="M32.3572 19.729H38.8532V36.7877H32.3572V19.729Z" fill="#FF82C4"/>
<path d="M41.2925 48.1614V61.971C41.2925 62.402 41.1213 62.8154 40.8165 63.1201C40.5118 63.4249 40.0984 63.5961 39.6674 63.5961H31.544C31.1132 63.5958 30.7002 63.4245 30.3956 63.1197C30.0911 62.815 29.92 62.4018 29.92 61.971V48.1614L30.7321 34.3518H40.476L41.2925 48.1614Z" fill="#CCDCE4"/>
<path d="M34.7943 53.8477H36.4194V55.4728H34.7943V53.8477Z" fill="#35505D"/>
<path d="M33.9823 57.0967H37.2303V58.7218H33.9823V57.0967Z" fill="#35505D"/>
<path d="M29.92 48.1614H41.2925V51.4094H29.92V48.1614Z" fill="#FF82C4"/>
<path d="M38.8532 16.48V19.728C38.8532 20.3704 38.6627 20.9983 38.3058 21.5325C37.9489 22.0666 37.4416 22.4829 36.8481 22.7287C36.2546 22.9746 35.6016 23.0389 34.9715 22.9136C34.3415 22.7882 33.7627 22.4789 33.3085 22.0247C32.8543 21.5704 32.5449 20.9917 32.4196 20.3616C32.2943 19.7316 32.3586 19.0785 32.6044 18.485C32.8502 17.8915 33.2666 17.3843 33.8007 17.0274C34.3348 16.6705 34.9628 16.48 35.6052 16.48H38.8532Z" fill="#EA4C89"/>
</svg>
