<svg width="80" height="80" viewBox="0 0 80 80" fill="none" xmlns="http://www.w3.org/2000/svg">
<rect width="80" height="80" rx="8" fill="#EEEEEE"/>
<path d="M31.9375 17.2732H35.1139V25.2172H31.9375V17.2732Z" fill="#CCDCE4"/>
<path d="M30.3444 24.4236H36.6992C36.9071 24.4236 37.113 24.4645 37.3051 24.5441C37.4972 24.6237 37.6717 24.7403 37.8187 24.8873C37.9657 25.0343 38.0823 25.2089 38.1619 25.4009C38.2415 25.593 38.2824 25.7989 38.2824 26.0068V29.1832H28.7611V26.0068C28.7611 25.5869 28.9279 25.1842 29.2248 24.8873C29.5218 24.5904 29.9245 24.4236 30.3444 24.4236Z" fill="#FF82C4"/>
<path d="M38.2924 29.1899L41.1877 32.0418C42.032 32.8732 42.7025 33.8643 43.1602 34.9573C43.6179 36.0503 43.8535 37.2235 43.8535 38.4085V61.7615C43.8535 61.9694 43.8126 62.1753 43.733 62.3674C43.6535 62.5595 43.5368 62.734 43.3898 62.881C43.2428 63.028 43.0683 63.1446 42.8762 63.2242C42.6841 63.3038 42.4782 63.3447 42.2703 63.3447H24.7832C24.3633 63.3447 23.9606 63.1779 23.6637 62.881C23.3668 62.5841 23.2 62.1814 23.2 61.7615V38.4085C23.1999 37.2235 23.4356 36.0503 23.8933 34.9573C24.351 33.8643 25.0215 32.8732 25.8658 32.0418L28.7611 29.1899H38.2924Z" fill="#CCDCE4"/>
<path d="M29.5469 59.3743C28.917 59.3743 28.313 59.1241 27.8676 58.6787C27.4222 58.2334 27.172 57.6293 27.172 56.9994V40.7988C27.1737 40.1408 27.3053 39.4897 27.5593 38.8828C27.8134 38.2759 28.1848 37.7251 28.6523 37.2622C29.764 36.1658 31.2629 35.5515 32.8242 35.5522H34.2294C35.7907 35.5515 37.2895 36.1658 38.4012 37.2622C38.8701 37.7241 39.2424 38.2747 39.4965 38.8818C39.7507 39.489 39.8815 40.1406 39.8816 40.7988V56.9994C39.8816 57.6293 39.6314 58.2334 39.186 58.6787C38.7406 59.1241 38.1366 59.3743 37.5067 59.3743H29.5469Z" fill="#FF82C4"/>
<path d="M33.792 46.0493C35.3036 46.0493 36.529 44.5784 36.529 42.764C36.529 40.9496 35.3036 39.4788 33.792 39.4788C32.2804 39.4788 31.0549 40.9496 31.0549 42.764C31.0549 44.5784 32.2804 46.0493 33.792 46.0493Z" fill="#EA4C89"/>
<path d="M32.7332 48.2542H34.3164V49.8374H32.7332V48.2542Z" fill="#EA4C89"/>
<path d="M31.9376 51.4307H35.114V53.0139H31.9376V51.4307Z" fill="#EA4C89"/>
<path d="M26.9404 19.4248L25.8163 18.3007L27.3995 16.7175C27.4736 16.642 27.5619 16.582 27.6595 16.5413C27.757 16.5005 27.8618 16.4796 27.9675 16.48H37.4987V18.0632H28.304L26.9404 19.4248Z" fill="#ABBAC2"/>
<path d="M51.2494 38.1741H52.896V42.3211H51.2494V38.1741Z" fill="#CCDCE4"/>
<path d="M50.4235 41.9067H53.7177C53.8255 41.9067 53.9322 41.9281 54.0318 41.9697C54.1314 42.0112 54.2218 42.0721 54.2981 42.1488C54.3743 42.2256 54.4347 42.3167 54.476 42.417C54.5172 42.5172 54.5384 42.6247 54.5384 42.7332V44.3914H49.6028V42.7332C49.6028 42.514 49.6893 42.3038 49.8432 42.1488C49.9971 41.9938 50.2058 41.9067 50.4235 41.9067Z" fill="#FF82C4"/>
<path d="M54.5436 44.395L56.0445 45.8838C56.4821 46.3178 56.8297 46.8352 57.067 47.4058C57.3042 47.9763 57.4264 48.5888 57.4264 49.2073V61.3983C57.4264 61.5068 57.4051 61.6143 57.3639 61.7146C57.3227 61.8148 57.2622 61.906 57.186 61.9827C57.1098 62.0595 57.0193 62.1203 56.9197 62.1619C56.8202 62.2034 56.7134 62.2248 56.6056 62.2248H47.5407C47.323 62.2248 47.1143 62.1377 46.9604 61.9827C46.8064 61.8277 46.72 61.6175 46.72 61.3983V49.2073C46.72 48.5888 46.8421 47.9763 47.0794 47.4058C47.3166 46.8352 47.6642 46.3178 48.1019 45.8838L49.6028 44.395H54.5436Z" fill="#CCDCE4"/>
<path d="M50.01 60.1521C49.6835 60.1521 49.3704 60.0215 49.1395 59.789C48.9086 59.5565 48.7789 59.2412 48.7789 58.9123V50.4551C48.7798 50.1117 48.848 49.7718 48.9797 49.4549C49.1114 49.1381 49.304 48.8506 49.5463 48.6089C50.1226 48.0366 50.8996 47.7159 51.7089 47.7163H52.4373C53.2467 47.7159 54.0237 48.0366 54.5999 48.6089C54.843 48.8501 55.036 49.1375 55.1677 49.4545C55.2995 49.7714 55.3673 50.1115 55.3673 50.4551V58.9123C55.3673 59.2412 55.2376 59.5565 55.0067 59.789C54.7759 60.0215 54.4627 60.1521 54.1362 60.1521H50.01Z" fill="#FF82C4"/>
<path d="M52.2107 53.1961C52.9943 53.1961 53.6295 52.4283 53.6295 51.4811C53.6295 50.5339 52.9943 49.7661 52.2107 49.7661C51.4271 49.7661 50.7919 50.5339 50.7919 51.4811C50.7919 52.4283 51.4271 53.1961 52.2107 53.1961Z" fill="#EA4C89"/>
<path d="M51.6619 54.3472H52.4826V55.1737H51.6619V54.3472Z" fill="#EA4C89"/>
<path d="M51.2494 56.0054H52.896V56.8319H51.2494V56.0054Z" fill="#EA4C89"/>
<path d="M48.6589 39.2973L48.0762 38.7105L48.8969 37.884C48.9353 37.8446 48.9811 37.8133 49.0317 37.792C49.0822 37.7707 49.1365 37.7598 49.1913 37.76H54.1321V38.5865H49.3657L48.6589 39.2973Z" fill="#ABBAC2"/>
</svg>
